<svg width="128" height="128" viewBox="0 0 128 128" fill="none" xmlns="http://www.w3.org/2000/svg">
  <defs>
    <linearGradient id="g" x1="24" y1="8" x2="104" y2="120" gradientUnits="userSpaceOnUse">
      <stop stop-color="#0078D4"/>
      <stop offset="1" stop-color="#00B7C3"/>
    </linearGradient>
    <filter id="s" x="-20" y="-20" width="168" height="168" filterUnits="userSpaceOnUse" color-interpolation-filters="sRGB">
      <feDropShadow dx="0" dy="14" stdDeviation="14" flood-color="#001A33" flood-opacity="0.28"/>
    </filter>
  </defs>
  <rect x="10" y="10" width="108" height="108" rx="28" fill="url(#g)" filter="url(#s)"/>
  <path d="M40 72c0-18.2 10.8-33 24-33s24 14.8 24 33-10.8 33-24 33-24-14.8-24-33Z" fill="#fff" opacity="0.16"/>
  <path d="M50 79c0-12.2 6.7-22 14-22s14 9.8 14 22-6.7 22-14 22-14-9.8-14-22Z" fill="#fff"/>
  <path d="M30 48c7.8 6.8 18.6 11.2 30.6 11.2S83.4 54.8 91.2 48" stroke="#fff" stroke-width="7" stroke-linecap="round" opacity="0.92"/>
  <path d="M44 36c4.8-3.2 11-5 17.6-5 6.6 0 12.8 1.8 17.6 5" stroke="#fff" stroke-width="6" stroke-linecap="round" opacity="0.6"/>
</svg>

