<svg width="920" height="520" viewBox="0 0 920 520" fill="none" xmlns="http://www.w3.org/2000/svg">
  <defs>
    <linearGradient id="bg" x1="90" y1="40" x2="820" y2="480" gradientUnits="userSpaceOnUse">
      <stop stop-color="#ffffff" stop-opacity="0.18"/>
      <stop offset="1" stop-color="#ffffff" stop-opacity="0.04"/>
    </linearGradient>
    <linearGradient id="card" x1="0" y1="0" x2="1" y2="1">
      <stop stop-color="#ffffff" stop-opacity="0.22"/>
      <stop offset="1" stop-color="#ffffff" stop-opacity="0.08"/>
    </linearGradient>
  </defs>
  <rect x="0" y="0" width="920" height="520" rx="26" fill="url(#bg)"/>
  <circle cx="158" cy="132" r="92" fill="#fff" opacity="0.08"/>
  <circle cx="764" cy="120" r="120" fill="#fff" opacity="0.06"/>
  <circle cx="720" cy="420" r="150" fill="#fff" opacity="0.05"/>

  <rect x="84" y="198" width="268" height="148" rx="18" fill="url(#card)"/>
  <rect x="106" y="224" width="132" height="14" rx="7" fill="#fff" opacity="0.65"/>
  <rect x="106" y="252" width="206" height="10" rx="5" fill="#fff" opacity="0.4"/>
  <rect x="106" y="272" width="186" height="10" rx="5" fill="#fff" opacity="0.32"/>
  <rect x="106" y="300" width="86" height="28" rx="14" fill="#fff" opacity="0.6"/>

  <rect x="386" y="168" width="450" height="240" rx="22" fill="url(#card)"/>
  <rect x="414" y="196" width="212" height="16" rx="8" fill="#fff" opacity="0.7"/>
  <rect x="414" y="232" width="366" height="12" rx="6" fill="#fff" opacity="0.4"/>
  <rect x="414" y="256" width="330" height="12" rx="6" fill="#fff" opacity="0.32"/>
  <rect x="414" y="280" width="290" height="12" rx="6" fill="#fff" opacity="0.26"/>

  <rect x="414" y="320" width="122" height="56" rx="16" fill="#fff" opacity="0.65"/>
  <rect x="554" y="320" width="122" height="56" rx="16" fill="#fff" opacity="0.45"/>
  <rect x="694" y="320" width="122" height="56" rx="16" fill="#fff" opacity="0.28"/>
</svg>

