<svg width="128" height="128" viewBox="0 0 128 128" fill="none" xmlns="http://www.w3.org/2000/svg">
  <defs>
    <linearGradient id="g" x1="24" y1="8" x2="104" y2="120" gradientUnits="userSpaceOnUse">
      <stop stop-color="#1F6EC9"/>
      <stop offset="1" stop-color="#15854D"/>
    </linearGradient>
  </defs>
  <rect x="10" y="10" width="108" height="108" rx="28" fill="url(#g)"/>
  <path d="M38 66c0-16.6 11.2-30 26-30s26 13.4 26 30-11.2 30-26 30-26-13.4-26-30Z" fill="#fff" opacity="0.14"/>
  <path d="M44 74c0-13.3 9-24 20-24s20 10.7 20 24-9 24-20 24-20-10.7-20-24Z" fill="#fff" opacity="0.22"/>
  <path d="M50 78.5c0-10.2 7-18.5 14-18.5s14 8.3 14 18.5S71 97 64 97s-14-8.3-14-18.5Z" fill="#fff"/>
  <path d="M64 34c-8.6 8.9-13 18.7-13 29.5 0 12.3 5.8 23.6 13 30.7 7.2-7.1 13-18.4 13-30.7 0-10.8-4.4-20.6-13-29.5Z" fill="#fff"/>
  <path d="M36 44c5 3.6 12.3 6.1 19.8 6.2" stroke="#fff" stroke-width="6" stroke-linecap="round" opacity="0.9"/>
  <path d="M92 44c-5 3.6-12.3 6.1-19.8 6.2" stroke="#fff" stroke-width="6" stroke-linecap="round" opacity="0.9"/>
</svg>
